# xmcd
#
# Track frame offsets:
#	150
#	10390
#	22515
#	36960
#	56285
#	67885
#	83790
#	98675
#	110995
#	121267
#	132430
#	147180
#
# Disc length: 2190 seconds
#
# Revision: 0
# Processed by: cddbd v1.5.2PL0 Copyright (c) Steve Scherf et al.
# Submitted via: EasyCDDAExtractor 11.1.0.1
#
DISCID=96088c0c
DTITLE=Gunn Randi - I'm in love
DYEAR=1900
DGENRE=country
TTITLE0=Brown eyed handsome man
TTITLE1=Close up the honky-tonks
TTITLE2=Mama he's crazy
TTITLE3=I'm in love
TTITLE4=It only hurts when I laugh
TTITLE5=Here's some love
TTITLE6=Now I know
TTITLE7=Stand by your man
TTITLE8=Go on and go
TTITLE9=Sweet dreams of you
TTITLE10=Jones on the jukebox
TTITLE11=If you can't give me love
EXTD=
EXTT0=
EXTT1=
EXTT2=
EXTT3=
EXTT4=
EXTT5=
EXTT6=
EXTT7=
EXTT8=
EXTT9=
EXTT10=
EXTT11=
PLAYORDER=
